<svg xmlns="http://www.w3.org/2000/svg" xmlns:xlink="http://www.w3.org/1999/xlink" width="1640" height="602.75"><rect width="1640" height="602.75" rx="5" ry="5" class="a"/><svg y="0%" x="0%"><circle cx="20" cy="20" r="6" fill="#ff5f58"/><circle cx="40" cy="20" r="6" fill="#ffbd2e"/><circle cx="60" cy="20" r="6" fill="#18c132"/></svg><svg height="542.75" viewBox="0 0 160 54.275" width="1600" x="15" xmlns="http://www.w3.org/2000/svg" xmlns:xlink="http://www.w3.org/1999/xlink" y="50"><style>@keyframes r{0%{transform:translateX(0)}3.14%{transform:translateX(-160px)}3.15%{transform:translateX(-320px)}3.34%{transform:translateX(-480px)}3.54%{transform:translateX(-640px)}3.55%{transform:translateX(-960px)}11.21%{transform:translateX(-1120px)}11.23%{transform:translateX(-1280px)}11.45%{transform:translateX(-1440px)}13.91%{transform:translateX(-1600px)}13.99%{transform:translateX(-1760px)}23.77%{transform:translateX(-1920px)}23.86%{transform:translateX(-2080px)}23.99%{transform:translateX(-2240px)}24%{transform:translateX(-2400px)}29.14%{transform:translateX(-2720px)}34.71%{transform:translateX(-3040px)}34.75%{transform:translateX(-3200px)}35.73%{transform:translateX(-3360px)}39.97%{transform:translateX(-3520px)}45.21%{transform:translateX(-3680px)}45.22%{transform:translateX(-3840px)}47.35%{transform:translateX(-4000px)}49.35%{transform:translateX(-4320px)}51.37%{transform:translateX(-4640px)}53.25%{transform:translateX(-4960px)}55.32%{transform:translateX(-5280px)}56.93%{transform:translateX(-5440px)}58.69%{transform:translateX(-5760px)}60.4%{transform:translateX(-5920px)}62.28%{transform:translateX(-6240px)}64.09%{transform:translateX(-6400px)}67.64%{transform:translateX(-6560px)}73.27%{transform:translateX(-6720px)}73.29%{transform:translateX(-6880px)}79.68%{transform:translateX(-7040px)}79.7%{transform:translateX(-7200px)}80.26%{transform:translateX(-7360px)}82.53%{transform:translateX(-7520px)}83.39%{transform:translateX(-7680px)}86.86%{transform:translateX(-7840px)}86.88%{transform:translateX(-8000px)}86.89%{transform:translateX(-8160px)}86.92%{transform:translateX(-9280px)}86.93%{transform:translateX(-9440px)}89.96%{transform:translateX(-9760px)}90.06%{transform:translateX(-9920px)}90.07%{transform:translateX(-10080px)}90.22%{transform:translateX(-10400px)}to{transform:translateX(-10880px)}}.a{fill:#292a44}.f,.g,.h{white-space:pre}.f{fill:#f2e7b7;font-weight:700}.g,.h{fill:#e8e6ed}.h{fill:#56d3c2}.h,.i{font-weight:700}.i,.j,.k{fill:#04dbb5;white-space:pre}.k{fill:#62d6e8}.l{fill:#4d4f68}.l,.m,.n{white-space:pre}.m{fill:#e4e3e9;font-weight:700}.n{fill:#f2e7b7}.o{fill:#4d4f68}.t{fill:#d75;white-space:pre}</style><g font-family="Monaco,Consolas,Menlo,'Bitstream Vera Sans Mono','Powerline Symbols',monospace" font-size="1.67"><defs><symbol id="1"><text y="1.67" class="f">demartini</text><text x="10.02" y="1.67" class="g">in</text><text x="13.026" y="1.67" class="h">~</text><text x="15.03" y="1.67" class="g">at</text><text x="18.036" y="1.67" class="f">13:37:23</text></symbol><symbol id="2"><text y="1.67" class="i">❯</text></symbol><symbol id="3"><text y="1.67" class="i">❯</text><text x="2.004" y="1.67" class="j">upmm</text></symbol><symbol id="4"><text y="1.67" class="i">❯</text><text x="2.004" y="1.67" class="j">upmm</text><text x="7.014" y="1.67" class="k">--</text><text x="9.018" y="1.67" class="l">brew</text></symbol><symbol id="5"><text y="1.67" class="m">--</text><text x="2.004" y="1.67" class="g">brew</text><text x="15.03" y="1.67" class="g">(</text><text x="16.032" y="1.67" class="n">Updates</text><text x="24.048" y="1.67" class="n">Homebrew</text><text x="33.066" y="1.67" class="n">Formulas</text><text x="42.084" y="1.67" class="n">and</text><text x="46.092" y="1.67" class="n">Casks.</text><text x="52.104" y="1.67" class="g">)</text><text x="55.11" y="1.67" class="m">--</text><text x="57.114" y="1.67" class="g">macos</text><text x="69.138" y="1.67" class="g">(</text><text x="70.14" y="1.67" class="n">Updates</text><text x="78.156" y="1.67" class="n">the</text><text x="82.164" y="1.67" class="n">macOS</text><text x="88.176" y="1.67" class="n">Operating</text><text x="98.196" y="1.67" class="n">System.</text><text x="105.21" y="1.67" class="g">)</text><text x="108.216" y="1.67" class="m">--</text><text x="110.22" y="1.67" class="g">pip3</text><text x="121.242" y="1.67" class="g">(</text><text x="122.244" y="1.67" class="n">Updates</text><text x="130.26" y="1.67" class="n">Python</text><text x="137.274" y="1.67" class="n">3.X</text><text x="141.282" y="1.67" class="n">pips.</text><text x="146.292" y="1.67" class="g">)</text></symbol><symbol id="6"><text y="1.67" class="m">--</text><text x="2.004" y="1.67" class="g">fish</text><text x="8.016" y="1.67" class="g">(</text><text x="9.018" y="1.67" class="n">Updates</text><text x="17.034" y="1.67" class="n">Fish</text><text x="22.044" y="1.67" class="n">Shell</text><text x="28.056" y="1.67" class="n">plugins</text><text x="36.072" y="1.67" class="n">and</text><text x="40.08" y="1.67" class="n">completions.</text><text x="52.104" y="1.67" class="g">)</text><text x="55.11" y="1.67" class="m">--</text><text x="57.114" y="1.67" class="g">mas</text><text x="62.124" y="1.67" class="g">(</text><text x="63.126" y="1.67" class="n">Updates</text><text x="71.142" y="1.67" class="n">Applications</text><text x="84.168" y="1.67" class="n">in</text><text x="87.174" y="1.67" class="n">the</text><text x="91.182" y="1.67" class="n">Mac</text><text x="95.19" y="1.67" class="n">App</text><text x="99.198" y="1.67" class="n">Store.</text><text x="105.21" y="1.67" class="g">)</text><text x="108.216" y="1.67" class="m">--</text><text x="110.22" y="1.67" class="g">version</text><text x="120.24" y="1.67" class="g">(</text><text x="121.242" y="1.67" class="n">Show</text><text x="126.252" y="1.67" class="n">the</text><text x="130.26" y="1.67" class="n">current</text><text x="138.276" y="1.67" class="n">version.</text><text x="146.292" y="1.67" class="g">)</text></symbol><symbol id="7"><text y="1.67" class="m">--</text><text x="2.004" y="1.67" class="g">gem</text><text x="24.048" y="1.67" class="g">(</text><text x="25.05" y="1.67" class="n">Updates</text><text x="33.066" y="1.67" class="n">the</text><text x="37.074" y="1.67" class="n">installed</text><text x="47.094" y="1.67" class="n">gems.</text><text x="52.104" y="1.67" class="g">)</text><text x="55.11" y="1.67" class="m">--</text><text x="57.114" y="1.67" class="g">npm</text><text x="76.152" y="1.67" class="g">(</text><text x="77.154" y="1.67" class="n">Updates</text><text x="85.17" y="1.67" class="n">npm</text><text x="89.178" y="1.67" class="n">global</text><text x="96.192" y="1.67" class="n">packages.</text><text x="105.21" y="1.67" class="g">)</text><text x="108.216" y="1.67" class="m">--</text><text x="110.22" y="1.67" class="g">yarn</text><text x="116.232" y="1.67" class="g">(</text><text x="117.234" y="1.67" class="n">Updates</text><text x="125.25" y="1.67" class="n">Yarn</text><text x="130.26" y="1.67" class="n">global</text><text x="137.274" y="1.67" class="n">packages.</text><text x="146.292" y="1.67" class="g">)</text></symbol><symbol id="8"><text y="1.67" class="m">--</text><text x="2.004" y="1.67" class="g">help</text><text x="40.08" y="1.67" class="g">(</text><text x="41.082" y="1.67" class="n">Print</text><text x="47.094" y="1.67" class="n">help.</text><text x="52.104" y="1.67" class="g">)</text><text x="55.11" y="1.67" class="m">--</text><text x="57.114" y="1.67" class="g">pip2</text><text x="78.156" y="1.67" class="g">(</text><text x="79.158" y="1.67" class="n">Updates</text><text x="87.174" y="1.67" class="n">Python</text><text x="94.188" y="1.67" class="n">2.7.X</text><text x="100.2" y="1.67" class="n">pips.</text><text x="105.21" y="1.67" class="g">)</text></symbol><symbol id="9"><text y="1.67" class="i">❯</text><text x="2.004" y="1.67" class="j">upmm</text><text x="7.014" y="1.67" class="k">--brew</text></symbol><symbol id="10"><path class="o" d="M0 0h2v2.171H0z"/><text y="1.67" class="m">--</text><path class="o" d="M2.004 0h14v2.171h-14z"/><text x="2.004" y="1.67" class="g">brew (</text><path class="o" d="M16.032 0h36v2.171h-36z"/><text x="16.032" y="1.67" class="n">Updates Homebrew Formulas and Casks.</text><path class="o" d="M52.104 0h1v2.171h-1z"/><text x="52.104" y="1.67" class="g">)</text><text x="55.11" y="1.67" class="m">--</text><text x="57.114" y="1.67" class="g">macos</text><text x="69.138" y="1.67" class="g">(</text><text x="70.14" y="1.67" class="n">Updates</text><text x="78.156" y="1.67" class="n">the</text><text x="82.164" y="1.67" class="n">macOS</text><text x="88.176" y="1.67" class="n">Operating</text><text x="98.196" y="1.67" class="n">System.</text><text x="105.21" y="1.67" class="g">)</text><text x="108.216" y="1.67" class="m">--</text><text x="110.22" y="1.67" class="g">pip3</text><text x="121.242" y="1.67" class="g">(</text><text x="122.244" y="1.67" class="n">Updates</text><text x="130.26" y="1.67" class="n">Python</text><text x="137.274" y="1.67" class="n">3.X</text><text x="141.282" y="1.67" class="n">pips.</text><text x="146.292" y="1.67" class="g">)</text></symbol><symbol id="11"><text y="1.67" class="i">❯</text><text x="2.004" y="1.67" class="j">upmm</text><text x="7.014" y="1.67" class="k">--gem</text></symbol><symbol id="12"><path class="o" d="M0 0h2v2.171H0z"/><text y="1.67" class="m">--</text><path class="o" d="M2.004 0h23v2.171h-23z"/><text x="2.004" y="1.67" class="g">gem (</text><path class="o" d="M25.05 0h27v2.171h-27z"/><text x="25.05" y="1.67" class="n">Updates the installed gems.</text><path class="o" d="M52.104 0h1v2.171h-1z"/><text x="52.104" y="1.67" class="g">)</text><text x="55.11" y="1.67" class="m">--</text><text x="57.114" y="1.67" class="g">npm</text><text x="76.152" y="1.67" class="g">(</text><text x="77.154" y="1.67" class="n">Updates</text><text x="85.17" y="1.67" class="n">npm</text><text x="89.178" y="1.67" class="n">global</text><text x="96.192" y="1.67" class="n">packages.</text><text x="105.21" y="1.67" class="g">)</text><text x="108.216" y="1.67" class="m">--</text><text x="110.22" y="1.67" class="g">yarn</text><text x="116.232" y="1.67" class="g">(</text><text x="117.234" y="1.67" class="n">Updates</text><text x="125.25" y="1.67" class="n">Yarn</text><text x="130.26" y="1.67" class="n">global</text><text x="137.274" y="1.67" class="n">packages.</text><text x="146.292" y="1.67" class="g">)</text></symbol><symbol id="13"><path class="o" d="M0 0h2v2.171H0z"/><text y="1.67" class="m">--</text><path class="o" d="M2.004 0h39v2.171h-39z"/><text x="2.004" y="1.67" class="g">help (</text><path class="o" d="M41.082 0h11v2.171h-11z"/><text x="41.082" y="1.67" class="n">Print help.</text><path class="o" d="M52.104 0h1v2.171h-1z"/><text x="52.104" y="1.67" class="g">)</text><text x="55.11" y="1.67" class="m">--</text><text x="57.114" y="1.67" class="g">pip2</text><text x="78.156" y="1.67" class="g">(</text><text x="79.158" y="1.67" class="n">Updates</text><text x="87.174" y="1.67" class="n">Python</text><text x="94.188" y="1.67" class="n">2.7.X</text><text x="100.2" y="1.67" class="n">pips.</text><text x="105.21" y="1.67" class="g">)</text></symbol><symbol id="14"><text y="1.67" class="i">❯</text><text x="2.004" y="1.67" class="j">upmm</text><text x="7.014" y="1.67" class="k">--help</text></symbol><symbol id="15"><text y="1.67" class="m">--</text><text x="2.004" y="1.67" class="g">brew</text><text x="15.03" y="1.67" class="g">(</text><text x="16.032" y="1.67" class="n">Updates</text><text x="24.048" y="1.67" class="n">Homebrew</text><text x="33.066" y="1.67" class="n">Formulas</text><text x="42.084" y="1.67" class="n">and</text><text x="46.092" y="1.67" class="n">Casks.</text><text x="52.104" y="1.67" class="g">)</text><path class="o" d="M55.11 0h2v2.171h-2z"/><text x="55.11" y="1.67" class="m">--</text><path class="o" d="M57.114 0h13v2.171h-13z"/><text x="57.114" y="1.67" class="g">macos (</text><path class="o" d="M70.14 0h35v2.171h-35z"/><text x="70.14" y="1.67" class="n">Updates the macOS Operating System.</text><path class="o" d="M105.21 0h1v2.171h-1z"/><text x="105.21" y="1.67" class="g">)</text><text x="108.216" y="1.67" class="m">--</text><text x="110.22" y="1.67" class="g">pip3</text><text x="121.242" y="1.67" class="g">(</text><text x="122.244" y="1.67" class="n">Updates</text><text x="130.26" y="1.67" class="n">Python</text><text x="137.274" y="1.67" class="n">3.X</text><text x="141.282" y="1.67" class="n">pips.</text><text x="146.292" y="1.67" class="g">)</text></symbol><symbol id="16"><text y="1.67" class="i">❯</text><text x="2.004" y="1.67" class="j">upmm</text><text x="7.014" y="1.67" class="k">--mas</text></symbol><symbol id="17"><text y="1.67" class="m">--</text><text x="2.004" y="1.67" class="g">fish</text><text x="8.016" y="1.67" class="g">(</text><text x="9.018" y="1.67" class="n">Updates</text><text x="17.034" y="1.67" class="n">Fish</text><text x="22.044" y="1.67" class="n">Shell</text><text x="28.056" y="1.67" class="n">plugins</text><text x="36.072" y="1.67" class="n">and</text><text x="40.08" y="1.67" class="n">completions.</text><text x="52.104" y="1.67" class="g">)</text><path class="o" d="M55.11 0h2v2.171h-2z"/><text x="55.11" y="1.67" class="m">--</text><path class="o" d="M57.114 0h6v2.171h-6z"/><text x="57.114" y="1.67" class="g">mas (</text><path class="o" d="M63.126 0h42v2.171h-42z"/><text x="63.126" y="1.67" class="n">Updates Applications in the Mac App Store.</text><path class="o" d="M105.21 0h1v2.171h-1z"/><text x="105.21" y="1.67" class="g">)</text><text x="108.216" y="1.67" class="m">--</text><text x="110.22" y="1.67" class="g">version</text><text x="120.24" y="1.67" class="g">(</text><text x="121.242" y="1.67" class="n">Show</text><text x="126.252" y="1.67" class="n">the</text><text x="130.26" y="1.67" class="n">current</text><text x="138.276" y="1.67" class="n">version.</text><text x="146.292" y="1.67" class="g">)</text></symbol><symbol id="18"><text y="1.67" class="m">--</text><text x="2.004" y="1.67" class="g">help</text><text x="40.08" y="1.67" class="g">(</text><text x="41.082" y="1.67" class="n">Print</text><text x="47.094" y="1.67" class="n">help.</text><text x="52.104" y="1.67" class="g">)</text><path class="o" d="M55.11 0h2v2.171h-2z"/><text x="55.11" y="1.67" class="m">--</text><path class="o" d="M57.114 0h22v2.171h-22z"/><text x="57.114" y="1.67" class="g">pip2 (</text><path class="o" d="M79.158 0h26v2.171h-26z"/><text x="79.158" y="1.67" class="n">Updates Python 2.7.X pips.</text><path class="o" d="M105.21 0h1v2.171h-1z"/><text x="105.21" y="1.67" class="g">)</text></symbol><symbol id="19"><text y="1.67" class="m">--</text><text x="2.004" y="1.67" class="g">fish</text><text x="8.016" y="1.67" class="g">(</text><text x="9.018" y="1.67" class="n">Updates</text><text x="17.034" y="1.67" class="n">Fish</text><text x="22.044" y="1.67" class="n">Shell</text><text x="28.056" y="1.67" class="n">plugins</text><text x="36.072" y="1.67" class="n">and</text><text x="40.08" y="1.67" class="n">completions.</text><text x="52.104" y="1.67" class="g">)</text><text x="55.11" y="1.67" class="m">--</text><text x="57.114" y="1.67" class="g">mas</text><text x="62.124" y="1.67" class="g">(</text><text x="63.126" y="1.67" class="n">Updates</text><text x="71.142" y="1.67" class="n">Applications</text><text x="84.168" y="1.67" class="n">in</text><text x="87.174" y="1.67" class="n">the</text><text x="91.182" y="1.67" class="n">Mac</text><text x="95.19" y="1.67" class="n">App</text><text x="99.198" y="1.67" class="n">Store.</text><text x="105.21" y="1.67" class="g">)</text><path class="o" d="M108.216 0h2v2.171h-2z"/><text x="108.216" y="1.67" class="m">--</text><path class="o" d="M110.22 0h11v2.171h-11z"/><text x="110.22" y="1.67" class="g">version (</text><path class="o" d="M121.242 0h25v2.171h-25z"/><text x="121.242" y="1.67" class="n">Show the current version.</text><path class="o" d="M146.292 0h1v2.171h-1z"/><text x="146.292" y="1.67" class="g">)</text></symbol><symbol id="20"><text y="1.67" class="g">UpMM</text><text x="5.01" y="1.67" class="g">-</text><text x="7.014" y="1.67" class="g">Update</text><text x="14.028" y="1.67" class="g">My</text><text x="17.034" y="1.67" class="g">macOS</text></symbol><symbol id="21"><text y="1.67" class="g">USAGE</text></symbol><symbol id="22"><text x="3.006" y="1.67" class="g">upmm</text><text x="8.016" y="1.67" class="g">[option]</text></symbol><symbol id="23"><text y="1.67" class="g">OPTIONS</text></symbol><symbol id="24"><text x="3.006" y="1.67" class="g">--brew</text><text x="15.03" y="1.67" class="g">Updates</text><text x="23.046" y="1.67" class="g">Homebrew</text><text x="32.064" y="1.67" class="g">Formulas</text><text x="41.082" y="1.67" class="g">and</text><text x="45.09" y="1.67" class="g">Casks.</text></symbol><symbol id="25"><text x="3.006" y="1.67" class="g">--npm</text><text x="15.03" y="1.67" class="g">Updates</text><text x="23.046" y="1.67" class="g">npm</text><text x="27.054" y="1.67" class="g">global</text><text x="34.068" y="1.67" class="g">packages.</text></symbol><symbol id="26"><text x="3.006" y="1.67" class="g">--yarn</text><text x="15.03" y="1.67" class="g">Updates</text><text x="23.046" y="1.67" class="g">Yarn</text><text x="28.056" y="1.67" class="g">global</text><text x="35.07" y="1.67" class="g">packages.</text></symbol><symbol id="27"><text x="3.006" y="1.67" class="g">--fish</text><text x="15.03" y="1.67" class="g">Updates</text><text x="23.046" y="1.67" class="g">Fish</text><text x="28.056" y="1.67" class="g">Shell</text><text x="34.068" y="1.67" class="g">plugins</text><text x="42.084" y="1.67" class="g">and</text><text x="46.092" y="1.67" class="g">completions.</text></symbol><symbol id="28"><text x="3.006" y="1.67" class="g">--gem</text><text x="15.03" y="1.67" class="g">Updates</text><text x="23.046" y="1.67" class="g">the</text><text x="27.054" y="1.67" class="g">installed</text><text x="37.074" y="1.67" class="g">gems.</text></symbol><symbol id="29"><text x="3.006" y="1.67" class="g">--pip2</text><text x="15.03" y="1.67" class="g">Updates</text><text x="23.046" y="1.67" class="g">Python</text><text x="30.06" y="1.67" class="g">2.7.X</text><text x="36.072" y="1.67" class="g">pips.</text></symbol><symbol id="30"><text x="3.006" y="1.67" class="g">--pip3</text><text x="15.03" y="1.67" class="g">Updates</text><text x="23.046" y="1.67" class="g">Python</text><text x="30.06" y="1.67" class="g">3.X</text><text x="34.068" y="1.67" class="g">pips.</text></symbol><symbol id="31"><text x="3.006" y="1.67" class="g">--mas</text><text x="15.03" y="1.67" class="g">Updates</text><text x="23.046" y="1.67" class="g">Applications</text><text x="36.072" y="1.67" class="g">in</text><text x="39.078" y="1.67" class="g">the</text><text x="43.086" y="1.67" class="g">Mac</text><text x="47.094" y="1.67" class="g">App</text><text x="51.102" y="1.67" class="g">Store.</text></symbol><symbol id="32"><text x="3.006" y="1.67" class="g">--macos</text><text x="15.03" y="1.67" class="g">Updates</text><text x="23.046" y="1.67" class="g">the</text><text x="27.054" y="1.67" class="g">macOS</text><text x="33.066" y="1.67" class="g">Operating</text><text x="43.086" y="1.67" class="g">System.</text></symbol><symbol id="33"><text x="3.006" y="1.67" class="g">--version</text><text x="15.03" y="1.67" class="g">Show</text><text x="20.04" y="1.67" class="g">the</text><text x="24.048" y="1.67" class="g">current</text><text x="32.064" y="1.67" class="g">version.</text></symbol><symbol id="34"><text x="3.006" y="1.67" class="g">--help</text><text x="15.03" y="1.67" class="g">Print</text><text x="21.042" y="1.67" class="g">this</text><text x="26.052" y="1.67" class="g">help.</text></symbol><symbol id="35"><text y="1.67" class="g">For</text><text x="4.008" y="1.67" class="g">more</text><text x="9.018" y="1.67" class="g">information</text><text x="21.042" y="1.67" class="g">visit</text><text x="27.054" y="1.67" class="g">→</text><text x="29.058" y="1.67" class="g">https://git.io/upmm.fish</text></symbol><symbol id="36"><text y="1.67" class="f">demartini</text><text x="10.02" y="1.67" class="g">in</text><text x="13.026" y="1.67" class="h">~</text><text x="15.03" y="1.67" class="g">at</text><text x="18.036" y="1.67" class="f">13:37:41</text></symbol><symbol id="a"><path fill="transparent" d="M0 0h160v25H0z"/></symbol><symbol id="b"><path fill="#b89bf9" d="M0 0h1.102v2.171H0z"/></symbol></defs><path class="a" d="M0 0h160v54.275H0z"/><g style="animation-duration:20.461788000000002s;animation-iteration-count:infinite;animation-name:r;animation-timing-function:steps(1,end)"><svg width="11040"><svg><use xlink:href="#a"/><use xlink:href="#b" x="-.004"/></svg><svg x="160"><use xlink:href="#a"/><use xlink:href="#b" x="-.004"/></svg><svg x="320"><use xlink:href="#a"/><use xlink:href="#b" x="-.004"/></svg><svg x="480"><use xlink:href="#a"/><use xlink:href="#b" x="-.004"/></svg><svg x="640"><use xlink:href="#a"/><use xlink:href="#b" x="-.004"/></svg><svg x="800"><use xlink:href="#a"/><use xlink:href="#b" x="-.004"/></svg><svg x="960"><use xlink:href="#a"/><use xlink:href="#b" x="1.996" y="2.146"/><use xlink:href="#1"/><use xlink:href="#2" y="2.171"/></svg><svg x="1120"><use xlink:href="#a"/><use xlink:href="#b" x="2.996" y="2.146"/><use xlink:href="#1"/><text y="3.841" class="i">❯</text><text x="2.004" y="3.841" class="g">u</text></svg><svg x="1280"><use xlink:href="#a"/><use xlink:href="#b" x="2.996" y="2.146"/><use xlink:href="#1"/><text y="3.841" class="i">❯</text><text x="2.004" y="3.841" class="t">u</text></svg><svg x="1440"><use xlink:href="#a"/><use xlink:href="#b" x="2.996" y="2.146"/><use xlink:href="#1"/><text y="3.841" class="i">❯</text><text x="2.004" y="3.841" class="t">u</text><text x="3.006" y="3.841" class="l">asysdiagnose</text></svg><svg x="1600"><use xlink:href="#a"/><use xlink:href="#b" x="3.996" y="2.146"/><use xlink:href="#1"/><text y="3.841" class="i">❯</text><text x="2.004" y="3.841" class="t">up</text></svg><svg x="1760"><use xlink:href="#a"/><use xlink:href="#b" x="3.996" y="2.146"/><use xlink:href="#1"/><text y="3.841" class="i">❯</text><text x="2.004" y="3.841" class="t">up</text><text x="4.008" y="3.841" class="l">date-alternatives</text></svg><svg x="1920"><use xlink:href="#a"/><use xlink:href="#b" x="4.996" y="2.146"/><use xlink:href="#1"/><text y="3.841" class="i">❯</text><text x="2.004" y="3.841" class="t">upm</text></svg><svg x="2080"><use xlink:href="#a"/><use xlink:href="#b" x="4.996" y="2.146"/><use xlink:href="#1"/><text y="3.841" class="i">❯</text><text x="2.004" y="3.841" class="t">upm</text><text x="5.01" y="3.841" class="l">m</text></svg><svg x="2240"><use xlink:href="#a"/><use xlink:href="#b" x="5.996" y="2.146"/><use xlink:href="#1"/><text y="3.841" class="i">❯</text><text x="2.004" y="3.841" class="t">upmm</text></svg><svg x="2400"><use xlink:href="#a"/><use xlink:href="#b" x="5.996" y="2.146"/><use xlink:href="#1"/><use xlink:href="#3" y="2.171"/></svg><svg x="2560"><use xlink:href="#a"/><use xlink:href="#b" x="6.996" y="2.146"/><use xlink:href="#1"/><use xlink:href="#3" y="2.171"/></svg><svg x="2720"><use xlink:href="#a"/><use xlink:href="#b" x="6.996" y="2.146"/><use xlink:href="#1"/><use xlink:href="#3" y="2.171"/></svg><svg x="2880"><use xlink:href="#a"/><use xlink:href="#b" x="7.996" y="2.146"/><use xlink:href="#1"/><text y="3.841" class="i">❯</text><text x="2.004" y="3.841" class="j">upmm</text><text x="7.014" y="3.841" class="g">-</text></svg><svg x="3040"><use xlink:href="#a"/><use xlink:href="#b" x="7.996" y="2.146"/><use xlink:href="#1"/><text y="3.841" class="i">❯</text><text x="2.004" y="3.841" class="j">upmm</text><text x="7.014" y="3.841" class="k">-</text></svg><svg x="3200"><use xlink:href="#a"/><use xlink:href="#b" x="7.996" y="2.146"/><use xlink:href="#1"/><text y="3.841" class="i">❯</text><text x="2.004" y="3.841" class="j">upmm</text><text x="7.014" y="3.841" class="k">-</text><text x="8.016" y="3.841" class="l">-brew</text></svg><svg x="3360"><use xlink:href="#a"/><use xlink:href="#b" x="8.996" y="2.146"/><use xlink:href="#1"/><use xlink:href="#4" y="2.171"/></svg><svg x="3520"><use xlink:href="#a"/><use xlink:href="#b" x="8.996" y="2.146"/><use xlink:href="#1"/><use xlink:href="#4" y="2.171"/><use xlink:href="#5" y="4.342"/><use xlink:href="#6" y="6.513"/><use xlink:href="#7" y="8.684"/><use xlink:href="#8" y="10.855"/></svg><svg x="3680"><use xlink:href="#a"/><use xlink:href="#b" x="13.996" y="2.146"/><use xlink:href="#1"/><use xlink:href="#9" y="2.171"/><use xlink:href="#10" y="4.342"/><use xlink:href="#6" y="6.513"/><use xlink:href="#7" y="8.684"/><use xlink:href="#8" y="10.855"/></svg><svg x="3840"><use xlink:href="#a"/><use xlink:href="#b" x="13.996" y="2.146"/><use xlink:href="#1"/><use xlink:href="#9" y="2.171"/><use xlink:href="#10" y="4.342"/><use xlink:href="#6" y="6.513"/><use xlink:href="#7" y="8.684"/><use xlink:href="#8" y="10.855"/></svg><svg x="4000"><use xlink:href="#a"/><use xlink:href="#b" x="13.996" y="2.146"/><use xlink:href="#1"/><text y="3.841" class="i">❯</text><text x="2.004" y="3.841" class="j">upmm</text><text x="7.014" y="3.841" class="k">--fish</text><use xlink:href="#5" y="4.342"/><path class="o" d="M0 6.513h2v2.171H0z"/><text y="8.183" class="m">--</text><path class="o" d="M2.004 6.513h7v2.171h-7z"/><text x="2.004" y="8.183" class="g">fish (</text><path class="o" d="M9.018 6.513h43v2.171h-43z"/><text x="9.018" y="8.183" class="n">Updates Fish Shell plugins and completions.</text><path class="o" d="M52.104 6.513h1v2.171h-1z"/><text x="52.104" y="8.183" class="g">)</text><text x="55.11" y="8.183" class="m">--</text><text x="57.114" y="8.183" class="g">mas</text><text x="62.124" y="8.183" class="g">(</text><text x="63.126" y="8.183" class="n">Updates</text><text x="71.142" y="8.183" class="n">Applications</text><text x="84.168" y="8.183" class="n">in</text><text x="87.174" y="8.183" class="n">the</text><text x="91.182" y="8.183" class="n">Mac</text><text x="95.19" y="8.183" class="n">App</text><text x="99.198" y="8.183" class="n">Store.</text><text x="105.21" y="8.183" class="g">)</text><text x="108.216" y="8.183" class="m">--</text><text x="110.22" y="8.183" class="g">version</text><text x="120.24" y="8.183" class="g">(</text><text x="121.242" y="8.183" class="n">Show</text><text x="126.252" y="8.183" class="n">the</text><text x="130.26" y="8.183" class="n">current</text><text x="138.276" y="8.183" class="n">version.</text><text x="146.292" y="8.183" class="g">)</text><use xlink:href="#7" y="8.684"/><use xlink:href="#8" y="10.855"/></svg><svg x="4160"><use xlink:href="#a"/><use xlink:href="#b" x="12.996" y="2.146"/><use xlink:href="#1"/><use xlink:href="#11" y="2.171"/><use xlink:href="#5" y="4.342"/><use xlink:href="#6" y="6.513"/><use xlink:href="#12" y="8.684"/><use xlink:href="#8" y="10.855"/></svg><svg x="4320"><use xlink:href="#a"/><use xlink:href="#b" x="12.996" y="2.146"/><use xlink:href="#1"/><use xlink:href="#11" y="2.171"/><use xlink:href="#5" y="4.342"/><use xlink:href="#6" y="6.513"/><use xlink:href="#12" y="8.684"/><use xlink:href="#8" y="10.855"/></svg><svg x="4480"><use xlink:href="#a"/><use xlink:href="#b" x="13.996" y="2.146"/><use xlink:href="#1"/><text y="3.841" class="i">❯</text><text x="2.004" y="3.841" class="j">upmm</text><text x="7.014" y="3.841" class="k">--hel</text><text x="12.024" y="3.841" class="g">p</text><use xlink:href="#5" y="4.342"/><use xlink:href="#6" y="6.513"/><use xlink:href="#7" y="8.684"/><use xlink:href="#13" y="10.855"/></svg><svg x="4640"><use xlink:href="#a"/><use xlink:href="#b" x="13.996" y="2.146"/><use xlink:href="#1"/><use xlink:href="#14" y="2.171"/><use xlink:href="#5" y="4.342"/><use xlink:href="#6" y="6.513"/><use xlink:href="#7" y="8.684"/><use xlink:href="#13" y="10.855"/></svg><svg x="4800"><use xlink:href="#a"/><use xlink:href="#b" x="14.996" y="2.146"/><use xlink:href="#1"/><text y="3.841" class="i">❯</text><text x="2.004" y="3.841" class="j">upmm</text><text x="7.014" y="3.841" class="k">--maco</text><text x="13.026" y="3.841" class="g">s</text><use xlink:href="#15" y="4.342"/><use xlink:href="#6" y="6.513"/><use xlink:href="#7" y="8.684"/><use xlink:href="#8" y="10.855"/></svg><svg x="4960"><use xlink:href="#a"/><use xlink:href="#b" x="14.996" y="2.146"/><use xlink:href="#1"/><text y="3.841" class="i">❯</text><text x="2.004" y="3.841" class="j">upmm</text><text x="7.014" y="3.841" class="k">--macos</text><use xlink:href="#15" y="4.342"/><use xlink:href="#6" y="6.513"/><use xlink:href="#7" y="8.684"/><use xlink:href="#8" y="10.855"/></svg><svg x="5120"><use xlink:href="#a"/><use xlink:href="#b" x="12.996" y="2.146"/><use xlink:href="#1"/><use xlink:href="#16" y="2.171"/><use xlink:href="#5" y="4.342"/><use xlink:href="#17" y="6.513"/><use xlink:href="#7" y="8.684"/><use xlink:href="#8" y="10.855"/></svg><svg x="5280"><use xlink:href="#a"/><use xlink:href="#b" x="12.996" y="2.146"/><use xlink:href="#1"/><use xlink:href="#16" y="2.171"/><use xlink:href="#5" y="4.342"/><use xlink:href="#17" y="6.513"/><use xlink:href="#7" y="8.684"/><use xlink:href="#8" y="10.855"/></svg><svg x="5440"><use xlink:href="#a"/><use xlink:href="#b" x="12.996" y="2.146"/><use xlink:href="#1"/><text y="3.841" class="i">❯</text><text x="2.004" y="3.841" class="j">upmm</text><text x="7.014" y="3.841" class="k">--npm</text><use xlink:href="#5" y="4.342"/><use xlink:href="#6" y="6.513"/><text y="10.354" class="m">--</text><text x="2.004" y="10.354" class="g">gem</text><text x="24.048" y="10.354" class="g">(</text><text x="25.05" y="10.354" class="n">Updates</text><text x="33.066" y="10.354" class="n">the</text><text x="37.074" y="10.354" class="n">installed</text><text x="47.094" y="10.354" class="n">gems.</text><text x="52.104" y="10.354" class="g">)</text><path class="o" d="M55.11 8.684h2v2.171h-2z"/><text x="55.11" y="10.354" class="m">--</text><path class="o" d="M57.114 8.684h20v2.171h-20z"/><text x="57.114" y="10.354" class="g">npm (</text><path class="o" d="M77.154 8.684h28v2.171h-28z"/><text x="77.154" y="10.354" class="n">Updates npm global packages.</text><path class="o" d="M105.21 8.684h1v2.171h-1z"/><text x="105.21" y="10.354" class="g">)</text><text x="108.216" y="10.354" class="m">--</text><text x="110.22" y="10.354" class="g">yarn</text><text x="116.232" y="10.354" class="g">(</text><text x="117.234" y="10.354" class="n">Updates</text><text x="125.25" y="10.354" class="n">Yarn</text><text x="130.26" y="10.354" class="n">global</text><text x="137.274" y="10.354" class="n">packages.</text><text x="146.292" y="10.354" class="g">)</text><use xlink:href="#8" y="10.855"/></svg><svg x="5600"><use xlink:href="#a"/><use xlink:href="#b" x="13.996" y="2.146"/><use xlink:href="#1"/><text y="3.841" class="i">❯</text><text x="2.004" y="3.841" class="j">upmm</text><text x="7.014" y="3.841" class="k">--pip</text><text x="12.024" y="3.841" class="g">2</text><use xlink:href="#5" y="4.342"/><use xlink:href="#6" y="6.513"/><use xlink:href="#7" y="8.684"/><use xlink:href="#18" y="10.855"/></svg><svg x="5760"><use xlink:href="#a"/><use xlink:href="#b" x="13.996" y="2.146"/><use xlink:href="#1"/><text y="3.841" class="i">❯</text><text x="2.004" y="3.841" class="j">upmm</text><text x="7.014" y="3.841" class="k">--pip2</text><use xlink:href="#5" y="4.342"/><use xlink:href="#6" y="6.513"/><use xlink:href="#7" y="8.684"/><use xlink:href="#18" y="10.855"/></svg><svg x="5920"><use xlink:href="#a"/><use xlink:href="#b" x="13.996" y="2.146"/><use xlink:href="#1"/><text y="3.841" class="i">❯</text><text x="2.004" y="3.841" class="j">upmm</text><text x="7.014" y="3.841" class="k">--pip3</text><text y="6.012" class="m">--</text><text x="2.004" y="6.012" class="g">brew</text><text x="15.03" y="6.012" class="g">(</text><text x="16.032" y="6.012" class="n">Updates</text><text x="24.048" y="6.012" class="n">Homebrew</text><text x="33.066" y="6.012" class="n">Formulas</text><text x="42.084" y="6.012" class="n">and</text><text x="46.092" y="6.012" class="n">Casks.</text><text x="52.104" y="6.012" class="g">)</text><text x="55.11" y="6.012" class="m">--</text><text x="57.114" y="6.012" class="g">macos</text><text x="69.138" y="6.012" class="g">(</text><text x="70.14" y="6.012" class="n">Updates</text><text x="78.156" y="6.012" class="n">the</text><text x="82.164" y="6.012" class="n">macOS</text><text x="88.176" y="6.012" class="n">Operating</text><text x="98.196" y="6.012" class="n">System.</text><text x="105.21" y="6.012" class="g">)</text><path class="o" d="M108.216 4.342h2v2.171h-2z"/><text x="108.216" y="6.012" class="m">--</text><path class="o" d="M110.22 4.342h12v2.171h-12z"/><text x="110.22" y="6.012" class="g">pip3 (</text><path class="o" d="M122.244 4.342h24v2.171h-24z"/><text x="122.244" y="6.012" class="n">Updates Python 3.X pips.</text><path class="o" d="M146.292 4.342h1v2.171h-1z"/><text x="146.292" y="6.012" class="g">)</text><use xlink:href="#6" y="6.513"/><use xlink:href="#7" y="8.684"/><use xlink:href="#8" y="10.855"/></svg><svg x="6080"><use xlink:href="#a"/><use xlink:href="#b" x="16.996" y="2.146"/><use xlink:href="#1"/><text y="3.841" class="i">❯</text><text x="2.004" y="3.841" class="j">upmm</text><text x="7.014" y="3.841" class="k">--vers</text><text x="13.026" y="3.841" class="g">ion</text><use xlink:href="#5" y="4.342"/><use xlink:href="#19" y="6.513"/><use xlink:href="#7" y="8.684"/><use xlink:href="#8" y="10.855"/></svg><svg x="6240"><use xlink:href="#a"/><use xlink:href="#b" x="16.996" y="2.146"/><use xlink:href="#1"/><text y="3.841" class="i">❯</text><text x="2.004" y="3.841" class="j">upmm</text><text x="7.014" y="3.841" class="k">--version</text><use xlink:href="#5" y="4.342"/><use xlink:href="#19" y="6.513"/><use xlink:href="#7" y="8.684"/><use xlink:href="#8" y="10.855"/></svg><svg x="6400"><use xlink:href="#a"/><use xlink:href="#b" x="13.996" y="2.146"/><use xlink:href="#1"/><text y="3.841" class="i">❯</text><text x="2.004" y="3.841" class="j">upmm</text><text x="7.014" y="3.841" class="k">--yarn</text><use xlink:href="#5" y="4.342"/><use xlink:href="#6" y="6.513"/><text y="10.354" class="m">--</text><text x="2.004" y="10.354" class="g">gem</text><text x="24.048" y="10.354" class="g">(</text><text x="25.05" y="10.354" class="n">Updates</text><text x="33.066" y="10.354" class="n">the</text><text x="37.074" y="10.354" class="n">installed</text><text x="47.094" y="10.354" class="n">gems.</text><text x="52.104" y="10.354" class="g">)</text><text x="55.11" y="10.354" class="m">--</text><text x="57.114" y="10.354" class="g">npm</text><text x="76.152" y="10.354" class="g">(</text><text x="77.154" y="10.354" class="n">Updates</text><text x="85.17" y="10.354" class="n">npm</text><text x="89.178" y="10.354" class="n">global</text><text x="96.192" y="10.354" class="n">packages.</text><text x="105.21" y="10.354" class="g">)</text><path class="o" d="M108.216 8.684h2v2.171h-2z"/><text x="108.216" y="10.354" class="m">--</text><path class="o" d="M110.22 8.684h7v2.171h-7z"/><text x="110.22" y="10.354" class="g">yarn (</text><path class="o" d="M117.234 8.684h29v2.171h-29z"/><text x="117.234" y="10.354" class="n">Updates Yarn global packages.</text><path class="o" d="M146.292 8.684h1v2.171h-1z"/><text x="146.292" y="10.354" class="g">)</text><use xlink:href="#8" y="10.855"/></svg><svg x="6560"><use xlink:href="#a"/><use xlink:href="#b" x="13.996" y="2.146"/><use xlink:href="#1"/><use xlink:href="#9" y="2.171"/><use xlink:href="#10" y="4.342"/><use xlink:href="#6" y="6.513"/><use xlink:href="#7" y="8.684"/><use xlink:href="#8" y="10.855"/></svg><svg x="6720"><use xlink:href="#a"/><use xlink:href="#b" x="8.996" y="2.146"/><use xlink:href="#1"/><text y="3.841" class="i">❯</text><text x="2.004" y="3.841" class="j">upmm</text><text x="7.014" y="3.841" class="k">--</text></svg><svg x="6880"><use xlink:href="#a"/><use xlink:href="#b" x="8.996" y="2.146"/><use xlink:href="#1"/><use xlink:href="#4" y="2.171"/></svg><svg x="7040"><use xlink:href="#a"/><use xlink:href="#b" x="9.996" y="2.146"/><use xlink:href="#1"/><text y="3.841" class="i">❯</text><text x="2.004" y="3.841" class="j">upmm</text><text x="7.014" y="3.841" class="k">--h</text></svg><svg x="7200"><use xlink:href="#a"/><use xlink:href="#b" x="9.996" y="2.146"/><use xlink:href="#1"/><text y="3.841" class="i">❯</text><text x="2.004" y="3.841" class="j">upmm</text><text x="7.014" y="3.841" class="k">--h</text><text x="10.02" y="3.841" class="l">elp</text></svg><svg x="7360"><use xlink:href="#a"/><use xlink:href="#b" x="10.996" y="2.146"/><use xlink:href="#1"/><text y="3.841" class="i">❯</text><text x="2.004" y="3.841" class="j">upmm</text><text x="7.014" y="3.841" class="k">--he</text><text x="11.022" y="3.841" class="l">lp</text></svg><svg x="7520"><use xlink:href="#a"/><use xlink:href="#b" x="11.996" y="2.146"/><use xlink:href="#1"/><text y="3.841" class="i">❯</text><text x="2.004" y="3.841" class="j">upmm</text><text x="7.014" y="3.841" class="k">--hel</text><text x="12.024" y="3.841" class="l">p</text></svg><svg x="7680"><use xlink:href="#a"/><use xlink:href="#b" x="12.996" y="2.146"/><use xlink:href="#1"/><use xlink:href="#14" y="2.171"/></svg><svg x="7840"><use xlink:href="#a"/><use xlink:href="#b" x="-.004" y="4.317"/><use xlink:href="#1"/><use xlink:href="#14" y="2.171"/></svg><svg x="8000"><use xlink:href="#a"/><use xlink:href="#b" x="-.004" y="4.317"/><use xlink:href="#1"/><use xlink:href="#14" y="2.171"/></svg><svg x="8160"><use xlink:href="#a"/><use xlink:href="#b" x="-.004" y="4.317"/><use xlink:href="#1"/><use xlink:href="#14" y="2.171"/></svg><svg x="8320"><use xlink:href="#a"/><use xlink:href="#b" x="-.004" y="8.659"/><use xlink:href="#1"/><use xlink:href="#14" y="2.171"/><use xlink:href="#20" y="4.342"/></svg><svg x="8480"><use xlink:href="#a"/><use xlink:href="#b" x="-.004" y="15.172"/><use xlink:href="#1"/><use xlink:href="#14" y="2.171"/><use xlink:href="#20" y="4.342"/><use xlink:href="#21" y="8.684"/><use xlink:href="#22" y="10.855"/></svg><svg x="8640"><use xlink:href="#a"/><use xlink:href="#b" x="-.004" y="17.343"/><use xlink:href="#1"/><use xlink:href="#14" y="2.171"/><use xlink:href="#20" y="4.342"/><use xlink:href="#21" y="8.684"/><use xlink:href="#22" y="10.855"/><use xlink:href="#23" y="15.197"/></svg><svg x="8800"><use xlink:href="#a"/><use xlink:href="#b" x="-.004" y="23.856"/><use xlink:href="#1"/><use xlink:href="#14" y="2.171"/><use xlink:href="#20" y="4.342"/><use xlink:href="#21" y="8.684"/><use xlink:href="#22" y="10.855"/><use xlink:href="#23" y="15.197"/><use xlink:href="#24" y="17.368"/><use xlink:href="#25" y="19.539"/><use xlink:href="#26" y="21.71"/></svg><svg x="8960"><use xlink:href="#a"/><use xlink:href="#b" x="-.004" y="26.027"/><use xlink:href="#1"/><use xlink:href="#14" y="2.171"/><use xlink:href="#20" y="4.342"/><use xlink:href="#21" y="8.684"/><use xlink:href="#22" y="10.855"/><use xlink:href="#23" y="15.197"/><use xlink:href="#24" y="17.368"/><use xlink:href="#25" y="19.539"/><use xlink:href="#26" y="21.71"/><use xlink:href="#27" y="23.881"/></svg><svg x="9120"><use xlink:href="#a"/><use xlink:href="#b" x="-.004" y="28.198"/><use xlink:href="#1"/><use xlink:href="#14" y="2.171"/><use xlink:href="#20" y="4.342"/><use xlink:href="#21" y="8.684"/><use xlink:href="#22" y="10.855"/><use xlink:href="#23" y="15.197"/><use xlink:href="#24" y="17.368"/><use xlink:href="#25" y="19.539"/><use xlink:href="#26" y="21.71"/><use xlink:href="#27" y="23.881"/><use xlink:href="#28" y="26.052"/></svg><svg x="9280"><use xlink:href="#a"/><use xlink:href="#b" x="-.004" y="30.369"/><use xlink:href="#1"/><use xlink:href="#14" y="2.171"/><use xlink:href="#20" y="4.342"/><use xlink:href="#21" y="8.684"/><use xlink:href="#22" y="10.855"/><use xlink:href="#23" y="15.197"/><use xlink:href="#24" y="17.368"/><use xlink:href="#25" y="19.539"/><use xlink:href="#26" y="21.71"/><use xlink:href="#27" y="23.881"/><use xlink:href="#28" y="26.052"/><use xlink:href="#29" y="28.223"/></svg><svg x="9440"><use xlink:href="#a"/><use xlink:href="#b" x="-.004" y="45.566"/><use xlink:href="#1"/><use xlink:href="#14" y="2.171"/><use xlink:href="#20" y="4.342"/><use xlink:href="#21" y="8.684"/><use xlink:href="#22" y="10.855"/><use xlink:href="#23" y="15.197"/><use xlink:href="#24" y="17.368"/><use xlink:href="#25" y="19.539"/><use xlink:href="#26" y="21.71"/><use xlink:href="#27" y="23.881"/><use xlink:href="#28" y="26.052"/><use xlink:href="#29" y="28.223"/><use xlink:href="#30" y="30.394"/><use xlink:href="#31" y="32.565"/><use xlink:href="#32" y="34.736"/><use xlink:href="#33" y="36.907"/><use xlink:href="#34" y="39.078"/><use xlink:href="#35" y="43.42"/></svg><svg x="9600"><use xlink:href="#a"/><use xlink:href="#b" x="-.004" y="45.566"/><use xlink:href="#1"/><use xlink:href="#14" y="2.171"/><use xlink:href="#20" y="4.342"/><use xlink:href="#21" y="8.684"/><use xlink:href="#22" y="10.855"/><use xlink:href="#23" y="15.197"/><use xlink:href="#24" y="17.368"/><use xlink:href="#25" y="19.539"/><use xlink:href="#26" y="21.71"/><use xlink:href="#27" y="23.881"/><use xlink:href="#28" y="26.052"/><use xlink:href="#29" y="28.223"/><use xlink:href="#30" y="30.394"/><use xlink:href="#31" y="32.565"/><use xlink:href="#32" y="34.736"/><use xlink:href="#33" y="36.907"/><use xlink:href="#34" y="39.078"/><use xlink:href="#35" y="43.42"/></svg><svg x="9760"><use xlink:href="#a"/><use xlink:href="#b" x="-.004" y="45.566"/><use xlink:href="#1"/><use xlink:href="#14" y="2.171"/><use xlink:href="#20" y="4.342"/><use xlink:href="#21" y="8.684"/><use xlink:href="#22" y="10.855"/><use xlink:href="#23" y="15.197"/><use xlink:href="#24" y="17.368"/><use xlink:href="#25" y="19.539"/><use xlink:href="#26" y="21.71"/><use xlink:href="#27" y="23.881"/><use xlink:href="#28" y="26.052"/><use xlink:href="#29" y="28.223"/><use xlink:href="#30" y="30.394"/><use xlink:href="#31" y="32.565"/><use xlink:href="#32" y="34.736"/><use xlink:href="#33" y="36.907"/><use xlink:href="#34" y="39.078"/><use xlink:href="#35" y="43.42"/></svg><svg x="9920"><use xlink:href="#a"/><use xlink:href="#b" x="-.004" y="45.566"/><use xlink:href="#1"/><use xlink:href="#14" y="2.171"/><use xlink:href="#20" y="4.342"/><use xlink:href="#21" y="8.684"/><use xlink:href="#22" y="10.855"/><use xlink:href="#23" y="15.197"/><use xlink:href="#24" y="17.368"/><use xlink:href="#25" y="19.539"/><use xlink:href="#26" y="21.71"/><use xlink:href="#27" y="23.881"/><use xlink:href="#28" y="26.052"/><use xlink:href="#29" y="28.223"/><use xlink:href="#30" y="30.394"/><use xlink:href="#31" y="32.565"/><use xlink:href="#32" y="34.736"/><use xlink:href="#33" y="36.907"/><use xlink:href="#34" y="39.078"/><use xlink:href="#35" y="43.42"/></svg><svg x="10080"><use xlink:href="#a"/><use xlink:href="#b" x="1.996" y="47.737"/><use xlink:href="#1"/><use xlink:href="#14" y="2.171"/><use xlink:href="#20" y="4.342"/><use xlink:href="#21" y="8.684"/><use xlink:href="#22" y="10.855"/><use xlink:href="#23" y="15.197"/><use xlink:href="#24" y="17.368"/><use xlink:href="#25" y="19.539"/><use xlink:href="#26" y="21.71"/><use xlink:href="#27" y="23.881"/><use xlink:href="#28" y="26.052"/><use xlink:href="#29" y="28.223"/><use xlink:href="#30" y="30.394"/><use xlink:href="#31" y="32.565"/><use xlink:href="#32" y="34.736"/><use xlink:href="#33" y="36.907"/><use xlink:href="#34" y="39.078"/><use xlink:href="#35" y="43.42"/><use xlink:href="#36" y="45.591"/><use xlink:href="#2" y="47.762"/></svg><svg x="10240"><use xlink:href="#a"/><use xlink:href="#b" x="-.004" y="47.737"/><use xlink:href="#1"/><use xlink:href="#14" y="2.171"/><use xlink:href="#20" y="4.342"/><use xlink:href="#21" y="8.684"/><use xlink:href="#22" y="10.855"/><use xlink:href="#23" y="15.197"/><use xlink:href="#24" y="17.368"/><use xlink:href="#25" y="19.539"/><use xlink:href="#26" y="21.71"/><use xlink:href="#27" y="23.881"/><use xlink:href="#28" y="26.052"/><use xlink:href="#29" y="28.223"/><use xlink:href="#30" y="30.394"/><use xlink:href="#31" y="32.565"/><use xlink:href="#32" y="34.736"/><use xlink:href="#33" y="36.907"/><use xlink:href="#34" y="39.078"/><use xlink:href="#35" y="43.42"/><use xlink:href="#36" y="45.591"/><use xlink:href="#2" y="47.762"/></svg><svg x="10400"><use xlink:href="#a"/><use xlink:href="#b" x="1.996" y="47.737"/><use xlink:href="#1"/><use xlink:href="#14" y="2.171"/><use xlink:href="#20" y="4.342"/><use xlink:href="#21" y="8.684"/><use xlink:href="#22" y="10.855"/><use xlink:href="#23" y="15.197"/><use xlink:href="#24" y="17.368"/><use xlink:href="#25" y="19.539"/><use xlink:href="#26" y="21.71"/><use xlink:href="#27" y="23.881"/><use xlink:href="#28" y="26.052"/><use xlink:href="#29" y="28.223"/><use xlink:href="#30" y="30.394"/><use xlink:href="#31" y="32.565"/><use xlink:href="#32" y="34.736"/><use xlink:href="#33" y="36.907"/><use xlink:href="#34" y="39.078"/><use xlink:href="#35" y="43.42"/><use xlink:href="#36" y="45.591"/><use xlink:href="#2" y="47.762"/></svg><svg x="10560"><use xlink:href="#a"/><use xlink:href="#b" x="-.004" y="49.908"/><use xlink:href="#1"/><use xlink:href="#14" y="2.171"/><use xlink:href="#20" y="4.342"/><use xlink:href="#21" y="8.684"/><use xlink:href="#22" y="10.855"/><use xlink:href="#23" y="15.197"/><use xlink:href="#24" y="17.368"/><use xlink:href="#25" y="19.539"/><use xlink:href="#26" y="21.71"/><use xlink:href="#27" y="23.881"/><use xlink:href="#28" y="26.052"/><use xlink:href="#29" y="28.223"/><use xlink:href="#30" y="30.394"/><use xlink:href="#31" y="32.565"/><use xlink:href="#32" y="34.736"/><use xlink:href="#33" y="36.907"/><use xlink:href="#34" y="39.078"/><use xlink:href="#35" y="43.42"/><use xlink:href="#36" y="45.591"/><use xlink:href="#2" y="47.762"/></svg><svg x="10720"><use xlink:href="#a"/><use xlink:href="#b" x="-.004" y="49.908"/><use xlink:href="#1"/><use xlink:href="#14" y="2.171"/><use xlink:href="#20" y="4.342"/><use xlink:href="#21" y="8.684"/><use xlink:href="#22" y="10.855"/><use xlink:href="#23" y="15.197"/><use xlink:href="#24" y="17.368"/><use xlink:href="#25" y="19.539"/><use xlink:href="#26" y="21.71"/><use xlink:href="#27" y="23.881"/><use xlink:href="#28" y="26.052"/><use xlink:href="#29" y="28.223"/><use xlink:href="#30" y="30.394"/><use xlink:href="#31" y="32.565"/><use xlink:href="#32" y="34.736"/><use xlink:href="#33" y="36.907"/><use xlink:href="#34" y="39.078"/><use xlink:href="#35" y="43.42"/><use xlink:href="#36" y="45.591"/><use xlink:href="#2" y="47.762"/></svg><svg x="10880"><use xlink:href="#a"/><use xlink:href="#b" x="-.004" y="49.908"/><use xlink:href="#1"/><use xlink:href="#14" y="2.171"/><use xlink:href="#20" y="4.342"/><use xlink:href="#21" y="8.684"/><use xlink:href="#22" y="10.855"/><use xlink:href="#23" y="15.197"/><use xlink:href="#24" y="17.368"/><use xlink:href="#25" y="19.539"/><use xlink:href="#26" y="21.71"/><use xlink:href="#27" y="23.881"/><use xlink:href="#28" y="26.052"/><use xlink:href="#29" y="28.223"/><use xlink:href="#30" y="30.394"/><use xlink:href="#31" y="32.565"/><use xlink:href="#32" y="34.736"/><use xlink:href="#33" y="36.907"/><use xlink:href="#34" y="39.078"/><use xlink:href="#35" y="43.42"/><use xlink:href="#36" y="45.591"/><use xlink:href="#2" y="47.762"/></svg></svg></g></g></svg></svg>