<?xml version="1.0"?>
<svg xmlns="http://www.w3.org/2000/svg" viewBox="0 0 512 512" width="512" height="512"><g id="Download"><path d="M464,96H304V64a8,8,0,0,0-8-8H216a8,8,0,0,0-8,8V96H48A40.045,40.045,0,0,0,8,136V360a40.045,40.045,0,0,0,40,40H181.754l-4,16H144a8,8,0,0,0-8,8v24a8,8,0,0,0,8,8H368a8,8,0,0,0,8-8V424a8,8,0,0,0-8-8H334.246l-4-16H464a40.045,40.045,0,0,0,40-40V136A40.045,40.045,0,0,0,464,96ZM224,168V72h64v96a8,8,0,0,0,8,8h14.037L256,236.041,201.963,176H216A8,8,0,0,0,224,168ZM24,136a24.027,24.027,0,0,1,24-24H208v48H184a8,8,0,0,0-5.946,13.352l72,80a8,8,0,0,0,11.892,0l72-80A8,8,0,0,0,328,160H304V112H464a24.027,24.027,0,0,1,24,24V336H24ZM360,440H152v-8H360Zm-42.246-24H194.246l4-16H313.754ZM488,360a24.027,24.027,0,0,1-24,24H48a24.027,24.027,0,0,1-24-24v-8H488Z"/><path d="M48,376H88a8,8,0,0,0,0-16H48a8,8,0,0,0,0,16Z"/><path d="M112,376h8a8,8,0,0,0,0-16h-8a8,8,0,0,0,0,16Z"/><path d="M352,272H160a8,8,0,0,0-8,8v32a8,8,0,0,0,8,8H352a8,8,0,0,0,8-8V280A8,8,0,0,0,352,272Zm-8,32H168V288H344Z"/></g></svg>
